<svg xmlns="http://www.w3.org/2000/svg" width="1024" height="1024" viewBox="0 0 1024 1024" role="img" aria-label="Game Hub card art">
  <defs>
    <linearGradient id="bg" x1="0" y1="0" x2="1" y2="1">
      <stop offset="0%" stop-color="#090b10"/>
      <stop offset="100%" stop-color="#11141d"/>
    </linearGradient>
    <linearGradient id="accent" x1="0" y1="0" x2="1" y2="0">
      <stop offset="0%" stop-color="#35d7b7"/>
      <stop offset="100%" stop-color="#7c8cff"/>
    </linearGradient>
    <filter id="glow" x="-40%" y="-40%" width="180%" height="180%">
      <feGaussianBlur stdDeviation="18" result="b"/>
      <feMerge><feMergeNode in="b"/><feMergeNode in="SourceGraphic"/></feMerge>
    </filter>
    <radialGradient id="vignette" cx="50%" cy="50%" r="60%">
      <stop offset="60%" stop-color="#000000" stop-opacity="0"/>
      <stop offset="100%" stop-color="#000000" stop-opacity="0.32"/>
    </radialGradient>
  </defs>

  <rect width="1024" height="1024" fill="url(#bg)"/>
  <circle cx="860" cy="130" r="230" fill="#35d7b7" opacity="0.22"/>
  <circle cx="160" cy="860" r="270" fill="#7c8cff" opacity="0.18"/>
  <rect x="68" y="68" width="888" height="888" rx="54" fill="none" stroke="#2a3144" stroke-width="4"/>
  <rect width="1024" height="1024" fill="url(#vignette)"/>

  <rect x="112" y="108" width="240" height="46" rx="23" fill="#141c2c" stroke="#3a4564"/>
<rect x="112" y="172" width="800" height="14" rx="7" fill="url(#accent)" filter="url(#glow)"/>

  
<g transform="translate(248 238)">
  <rect x="130" y="72" width="280" height="430" rx="30" fill="#0f1626" stroke="url(#accent)" stroke-width="7"/>
  <rect x="168" y="120" width="204" height="136" rx="16" fill="#17243a"/>
  <circle cx="220" cy="338" r="36" fill="#35d7b7"/>
  <circle cx="324" cy="320" r="13" fill="#c08bff"/>
  <circle cx="354" cy="352" r="13" fill="#7c8cff"/>
  <circle cx="324" cy="384" r="13" fill="#8bf8cd"/>
  <rect x="188" y="432" width="164" height="24" rx="12" fill="#dbe5ff"/>
</g>

</svg>
