<svg xmlns="http://www.w3.org/2000/svg" width="1024" height="1024" viewBox="0 0 1024 1024" role="img" aria-label="NFT Generator card art">
  <defs>
    <linearGradient id="bg" x1="0" y1="0" x2="1" y2="1">
      <stop offset="0%" stop-color="#090b10"/>
      <stop offset="100%" stop-color="#11141d"/>
    </linearGradient>
    <linearGradient id="accent" x1="0" y1="0" x2="1" y2="0">
      <stop offset="0%" stop-color="#35d7b7"/>
      <stop offset="100%" stop-color="#7c8cff"/>
    </linearGradient>
    <filter id="glow" x="-40%" y="-40%" width="180%" height="180%">
      <feGaussianBlur stdDeviation="16" result="b"/>
      <feMerge><feMergeNode in="b"/><feMergeNode in="SourceGraphic"/></feMerge>
    </filter>
  </defs>

  <rect width="1024" height="1024" fill="url(#bg)"/>
  <circle cx="860" cy="130" r="230" fill="#35d7b7" opacity="0.24"/>
  <circle cx="160" cy="860" r="270" fill="#7c8cff" opacity="0.18"/>
  <rect x="68" y="68" width="888" height="888" rx="54" fill="none" stroke="#2a3144" stroke-width="4"/>

  <rect x="112" y="108" width="240" height="46" rx="23" fill="#141c2c" stroke="#3a4564"/>
<rect x="112" y="172" width="800" height="14" rx="7" fill="url(#accent)" filter="url(#glow)"/>

  <g transform="translate(210 226)">
    <rect x="120" y="92" width="492" height="430" rx="32" fill="#0f1626" stroke="#3a4b70" stroke-width="5"/>

    <rect x="162" y="136" width="408" height="88" rx="14" fill="#17243a"/>
    <rect x="162" y="242" width="408" height="88" rx="14" fill="#17243a"/>
    <rect x="162" y="348" width="408" height="88" rx="14" fill="#17243a"/>

    <circle cx="198" cy="180" r="17" fill="#35d7b7"/>
    <circle cx="198" cy="286" r="17" fill="#7c8cff"/>
    <circle cx="198" cy="392" r="17" fill="#c08bff"/>

    <rect x="236" y="166" width="290" height="28" rx="14" fill="#dce5ff"/>
    <rect x="236" y="272" width="238" height="28" rx="14" fill="#dce5ff"/>
    <rect x="236" y="378" width="314" height="28" rx="14" fill="#dce5ff"/>

    <rect x="510" y="134" width="60" height="306" rx="16" fill="#132034" stroke="#2f466a" stroke-width="3"/>
    <circle cx="540" cy="196" r="12" fill="#8bf8cd"/>
    <circle cx="540" cy="286" r="12" fill="#9cb0ff"/>
    <circle cx="540" cy="376" r="12" fill="#ddb0ff"/>
  </g>

</svg>
