<svg xmlns="http://www.w3.org/2000/svg" width="1024" height="1024" viewBox="0 0 1024 1024" role="img" aria-label="Nomads card art">
  <defs>
    <linearGradient id="bg" x1="0" y1="0" x2="1" y2="1">
      <stop offset="0%" stop-color="#090b10"/>
      <stop offset="100%" stop-color="#11141d"/>
    </linearGradient>
    <linearGradient id="accent" x1="0" y1="0" x2="1" y2="0">
      <stop offset="0%" stop-color="#35d7b7"/>
      <stop offset="100%" stop-color="#8bf8cd"/>
    </linearGradient>
    <filter id="glow" x="-40%" y="-40%" width="180%" height="180%">
      <feGaussianBlur stdDeviation="16" result="b"/>
      <feMerge><feMergeNode in="b"/><feMergeNode in="SourceGraphic"/></feMerge>
    </filter>
  </defs>

  <rect width="1024" height="1024" fill="url(#bg)"/>
  <circle cx="860" cy="130" r="230" fill="#35d7b7" opacity="0.24"/>
  <circle cx="160" cy="860" r="270" fill="#8bf8cd" opacity="0.18"/>
  <rect x="68" y="68" width="888" height="888" rx="54" fill="none" stroke="#2a3144" stroke-width="4"/>

  <rect x="112" y="108" width="240" height="46" rx="23" fill="#141c2c" stroke="#3a4564"/>
<rect x="112" y="172" width="800" height="14" rx="7" fill="url(#accent)" filter="url(#glow)"/>

  <g transform="translate(252 252)">
    <circle cx="260" cy="260" r="220" fill="#101a2a"/>
    <circle cx="260" cy="260" r="208" fill="none" stroke="#f1f6ff" stroke-width="12" stroke-dasharray="246 84" stroke-linecap="round" opacity="0.96"/>
    <circle cx="260" cy="260" r="170" fill="none" stroke="#2e4663" stroke-width="4" opacity="0.45"/>

    <path d="M260 26 L300 220 L494 260 L300 300 L260 494 L220 300 L26 260 L220 220 Z" fill="none" stroke="#f6f9ff" stroke-width="14" stroke-linejoin="round"/>
    <circle cx="260" cy="260" r="44" fill="none" stroke="#f6f9ff" stroke-width="8"/>
    <circle cx="260" cy="260" r="15" fill="#f6f9ff"/>

    <path d="M260 120 L289 177 L231 177 Z" fill="none" stroke="#f6f9ff" stroke-width="8" stroke-linejoin="round"/>
    <path d="M400 260 L343 289 L343 231 Z" fill="none" stroke="#f6f9ff" stroke-width="8" stroke-linejoin="round"/>
    <path d="M260 400 L289 343 L231 343 Z" fill="none" stroke="#f6f9ff" stroke-width="8" stroke-linejoin="round"/>
    <path d="M120 260 L177 289 L177 231 Z" fill="none" stroke="#f6f9ff" stroke-width="8" stroke-linejoin="round"/>
  </g>

</svg>
