<svg xmlns="http://www.w3.org/2000/svg" width="1024" height="1024" viewBox="0 0 1024 1024" role="img" aria-label="Non Custodial Stake card art">
  <defs>
    <linearGradient id="bg" x1="0" y1="0" x2="1" y2="1">
      <stop offset="0%" stop-color="#090b10"/>
      <stop offset="100%" stop-color="#11141d"/>
    </linearGradient>
    <linearGradient id="accent" x1="0" y1="0" x2="1" y2="0">
      <stop offset="0%" stop-color="#8bf8cd"/>
      <stop offset="100%" stop-color="#35d7b7"/>
    </linearGradient>
    <filter id="glow" x="-40%" y="-40%" width="180%" height="180%">
      <feGaussianBlur stdDeviation="18" result="b"/>
      <feMerge><feMergeNode in="b"/><feMergeNode in="SourceGraphic"/></feMerge>
    </filter>
    <radialGradient id="vignette" cx="50%" cy="50%" r="60%">
      <stop offset="60%" stop-color="#000000" stop-opacity="0"/>
      <stop offset="100%" stop-color="#000000" stop-opacity="0.32"/>
    </radialGradient>
  </defs>

  <rect width="1024" height="1024" fill="url(#bg)"/>
  <circle cx="860" cy="130" r="230" fill="#8bf8cd" opacity="0.22"/>
  <circle cx="160" cy="860" r="270" fill="#35d7b7" opacity="0.18"/>
  <rect x="68" y="68" width="888" height="888" rx="54" fill="none" stroke="#2a3144" stroke-width="4"/>
  <rect width="1024" height="1024" fill="url(#vignette)"/>

  <rect x="112" y="108" width="240" height="46" rx="23" fill="#141c2c" stroke="#3a4564"/>
<rect x="112" y="172" width="800" height="14" rx="7" fill="url(#accent)" filter="url(#glow)"/>

  
<g transform="translate(252 238)">
  <path d="M260 62 L435 126 V276 C435 370 360 438 260 486 C160 438 85 370 85 276 V126 Z" fill="#0f1626" stroke="url(#accent)" stroke-width="7"/>
  <circle cx="260" cy="256" r="100" fill="#17243a" stroke="#8bf8cd" stroke-width="5"/>
<rect x="185" y="332" width="150" height="20" rx="10" fill="#8bf8cd" opacity="0.8"/>
</g>


</svg>
