<svg xmlns="http://www.w3.org/2000/svg" width="1024" height="1024" viewBox="0 0 1024 1024" role="img" aria-label="Online Chess card art">
  <defs>
    <linearGradient id="bg" x1="0" y1="0" x2="1" y2="1">
      <stop offset="0%" stop-color="#090b10"/>
      <stop offset="100%" stop-color="#11141d"/>
    </linearGradient>
    <linearGradient id="accent" x1="0" y1="0" x2="1" y2="0">
      <stop offset="0%" stop-color="#c08bff"/>
      <stop offset="100%" stop-color="#35d7b7"/>
    </linearGradient>
    <filter id="glow" x="-40%" y="-40%" width="180%" height="180%">
      <feGaussianBlur stdDeviation="18" result="b"/>
      <feMerge><feMergeNode in="b"/><feMergeNode in="SourceGraphic"/></feMerge>
    </filter>
    <radialGradient id="vignette" cx="50%" cy="50%" r="60%">
      <stop offset="60%" stop-color="#000000" stop-opacity="0"/>
      <stop offset="100%" stop-color="#000000" stop-opacity="0.32"/>
    </radialGradient>
  </defs>

  <rect width="1024" height="1024" fill="url(#bg)"/>
  <circle cx="860" cy="130" r="230" fill="#c08bff" opacity="0.22"/>
  <circle cx="160" cy="860" r="270" fill="#35d7b7" opacity="0.18"/>
  <rect x="68" y="68" width="888" height="888" rx="54" fill="none" stroke="#2a3144" stroke-width="4"/>
  <rect width="1024" height="1024" fill="url(#vignette)"/>

  <rect x="112" y="108" width="240" height="46" rx="23" fill="#141c2c" stroke="#3a4564"/>
<rect x="112" y="172" width="800" height="14" rx="7" fill="url(#accent)" filter="url(#glow)"/>

  
<g transform="translate(220 240)">
  <rect x="120" y="95" width="470" height="390" rx="30" fill="#0f1626" stroke="#3a4b70" stroke-width="5"/>
  <rect x="155" y="130" width="80" height="80" fill="#1f2f4d"/><rect x="235" y="130" width="80" height="80" fill="#2a3e64"/><rect x="315" y="130" width="80" height="80" fill="#1f2f4d"/>
  <rect x="155" y="210" width="80" height="80" fill="#2a3e64"/><rect x="235" y="210" width="80" height="80" fill="#1f2f4d"/><rect x="315" y="210" width="80" height="80" fill="#2a3e64"/>
  <circle cx="355" cy="218" r="40" fill="#f4f7ff"/>
  <path d="M355 266 C396 266 423 295 423 331 C423 352 411 370 391 384 L425 384 C436 384 445 393 445 404 C445 415 436 424 425 424 L285 424 C274 424 265 415 265 404 C265 393 274 384 285 384 L319 384 C299 370 287 352 287 331 C287 295 314 266 355 266 Z" fill="#f4f7ff"/>
  <rect x="299" y="424" width="112" height="24" rx="11" fill="#e4ebff"/>
  <rect x="273" y="450" width="164" height="30" rx="13" fill="#ccd8f7"/>
</g>

</svg>
