<svg xmlns="http://www.w3.org/2000/svg" width="1024" height="1024" viewBox="0 0 1024 1024" role="img" aria-label="Swiggle Scan card art">
  <defs>
    <linearGradient id="bg" x1="0" y1="0" x2="1" y2="1">
      <stop offset="0%" stop-color="#090b10"/>
      <stop offset="100%" stop-color="#11141d"/>
    </linearGradient>
    <linearGradient id="accent" x1="0" y1="0" x2="1" y2="0">
      <stop offset="0%" stop-color="#7c8cff"/>
      <stop offset="100%" stop-color="#9ea9ff"/>
    </linearGradient>
    <filter id="glow" x="-40%" y="-40%" width="180%" height="180%">
      <feGaussianBlur stdDeviation="18" result="b"/>
      <feMerge><feMergeNode in="b"/><feMergeNode in="SourceGraphic"/></feMerge>
    </filter>
    <radialGradient id="vignette" cx="50%" cy="50%" r="60%">
      <stop offset="60%" stop-color="#000000" stop-opacity="0"/>
      <stop offset="100%" stop-color="#000000" stop-opacity="0.32"/>
    </radialGradient>
  </defs>

  <rect width="1024" height="1024" fill="url(#bg)"/>
  <circle cx="860" cy="130" r="230" fill="#7c8cff" opacity="0.22"/>
  <circle cx="160" cy="860" r="270" fill="#9ea9ff" opacity="0.18"/>
  <rect x="68" y="68" width="888" height="888" rx="54" fill="none" stroke="#2a3144" stroke-width="4"/>
  <rect width="1024" height="1024" fill="url(#vignette)"/>

  <rect x="112" y="108" width="240" height="46" rx="23" fill="#141c2c" stroke="#3a4564"/>
<rect x="112" y="172" width="800" height="14" rx="7" fill="url(#accent)" filter="url(#glow)"/>

  
<g transform="translate(252 252)">
  <circle cx="260" cy="260" r="210" fill="#0f1626" stroke="url(#accent)" stroke-width="7"/>
  <circle cx="260" cy="260" r="150" fill="none" stroke="#35507a" stroke-width="4"/>
  <circle cx="260" cy="260" r="94" fill="none" stroke="#35507a" stroke-width="4"/>
  <line x1="260" y1="50" x2="260" y2="470" stroke="#35507a" stroke-width="3"/>
  <line x1="50" y1="260" x2="470" y2="260" stroke="#35507a" stroke-width="3"/>
  <path d="M260 260 L440 190 A210 210 0 0 1 370 410 Z" fill="#35d7b7" opacity="0.28"/>
  <circle cx="366" cy="321" r="13" fill="#b8ffe8"/>
</g>

</svg>
