<svg xmlns="http://www.w3.org/2000/svg" width="1024" height="1024" viewBox="0 0 1024 1024" role="img" aria-label="Tempo Hub card art">
  <defs>
    <linearGradient id="bg" x1="0" y1="0" x2="1" y2="1">
      <stop offset="0%" stop-color="#090b10"/>
      <stop offset="100%" stop-color="#11141d"/>
    </linearGradient>
    <linearGradient id="accent" x1="0" y1="0" x2="1" y2="0">
      <stop offset="0%" stop-color="#7c8cff"/>
      <stop offset="100%" stop-color="#35d7b7"/>
    </linearGradient>
    <filter id="glow" x="-40%" y="-40%" width="180%" height="180%">
      <feGaussianBlur stdDeviation="16" result="b"/>
      <feMerge><feMergeNode in="b"/><feMergeNode in="SourceGraphic"/></feMerge>
    </filter>
  </defs>

  <rect width="1024" height="1024" fill="url(#bg)"/>
  <circle cx="860" cy="130" r="230" fill="#7c8cff" opacity="0.24"/>
  <circle cx="160" cy="860" r="270" fill="#35d7b7" opacity="0.18"/>
  <rect x="68" y="68" width="888" height="888" rx="54" fill="none" stroke="#2a3144" stroke-width="4"/>

  <rect x="112" y="108" width="240" height="46" rx="23" fill="#141c2c" stroke="#3a4564"/>
<rect x="112" y="172" width="800" height="14" rx="7" fill="url(#accent)" filter="url(#glow)"/>

  <g transform="translate(188 234)">
    <rect x="84" y="74" width="580" height="420" rx="34" fill="#0f1626" stroke="#3a4b70" stroke-width="5"/>
    <rect x="118" y="110" width="246" height="170" rx="18" fill="#18253c"/>
    <rect x="388" y="110" width="242" height="76" rx="14" fill="#18253c"/>
    <rect x="388" y="204" width="242" height="76" rx="14" fill="#18253c"/>
    <rect x="118" y="300" width="512" height="158" rx="18" fill="#18253c"/>

    <path d="M142 414 L228 365 L298 392 L382 336 L524 378" fill="none" stroke="url(#accent)" stroke-width="10" stroke-linecap="round"/>
    <circle cx="228" cy="365" r="8" fill="#9ec0ff"/>
    <circle cx="382" cy="336" r="8" fill="#8bf8cd"/>

    <circle cx="241" cy="194" r="52" fill="#121f34" stroke="#4d618c" stroke-width="4"/>
    <circle cx="241" cy="194" r="26" fill="none" stroke="url(#accent)" stroke-width="6"/>
  </g>

</svg>
